HIERARCHY
ROOT root
{
	OFFSET	0	13.1	24.9
	CHANNELS 6  Xposition Yposition Zposition Xrotation Yrotation Zrotation
	JOINT spine_1
	{
		OFFSET	0	9.99999	0
		CHANNELS 3  Xrotation Yrotation Zrotation
		JOINT spine_2
		{
			OFFSET	0	112	-10
			CHANNELS 3  Xrotation Yrotation Zrotation
			JOINT spine_3
			{
				OFFSET	0	206.5	19.3
				CHANNELS 3  Xrotation Yrotation Zrotation
				JOINT spine_4
				{
					OFFSET	0	110.4	14.6
					CHANNELS 3  Xrotation Yrotation Zrotation
					JOINT neck_1
					{
						OFFSET	0	71.8	-50.3
						CHANNELS 3  Xrotation Yrotation Zrotation
						JOINT neck_2
						{
							OFFSET	0	86.2	-25.8
							CHANNELS 3  Xrotation Yrotation Zrotation
							JOINT head_ee
							{
								OFFSET	0	179.8	-8.7
								CHANNELS 3  Xrotation Yrotation Zrotation
								End Site
								{
									OFFSET	1	0	0
								}
							}
						}
					}
					JOINT left_clavicle
					{
						OFFSET	-43.2	22.4	-70.8
						CHANNELS 3  Xrotation Yrotation Zrotation
						JOINT left_shoulder
						{
							OFFSET	-93.9	-5.79999	48.7
							CHANNELS 3  Xrotation Yrotation Zrotation
							JOINT left_elbow
							{
								OFFSET	-291.4	-30.8	15.2
								CHANNELS 3  Xrotation Yrotation Zrotation
								JOINT left_lowarm_twist
								{
									OFFSET	-110.7	-3.89999	13.6
									CHANNELS 3  Xrotation Yrotation Zrotation
									JOINT left_hand
									{
										OFFSET	-110.7	-3.89999	13.6
										CHANNELS 3  Xrotation Yrotation Zrotation
										JOINT left_ee
										{
											OFFSET	-80.8	-5.10001	12.1
											CHANNELS 3  Xrotation Yrotation Zrotation
											End Site
											{
												OFFSET	1	0	0
											}
										}
									}
								}
							}
						}
					}
					JOINT right_clavicle
					{
						OFFSET	43.2	22.4	-70.8
						CHANNELS 3  Xrotation Yrotation Zrotation
						JOINT right_shoulder
						{
							OFFSET	93.9	-5.79999	48.7
							CHANNELS 3  Xrotation Yrotation Zrotation
							JOINT right_elbow
							{
								OFFSET	291.4	-30.8	15.2
								CHANNELS 3  Xrotation Yrotation Zrotation
								JOINT right_lowarm_twist
								{
									OFFSET	110.7	-3.89999	13.6
									CHANNELS 3  Xrotation Yrotation Zrotation
									JOINT right_hand
									{
										OFFSET	110.7	-3.89999	13.6
										CHANNELS 3  Xrotation Yrotation Zrotation
										JOINT right_ee
										{
											OFFSET	80.8	-5.10001	12.1
											CHANNELS 3  Xrotation Yrotation Zrotation
											End Site
											{
												OFFSET	1	0	0
											}
										}
									}
								}
							}
						}
					}
				}
			}
		}
	}
	JOINT left_hip
	{
		OFFSET	-82.8	-127.5	0.300001
		CHANNELS 3  Xrotation Yrotation Zrotation
		JOINT left_knee
		{
			OFFSET	-28.2	-396.7	2.2
			CHANNELS 3  Xrotation Yrotation Zrotation
			JOINT left_ankle
			{
				OFFSET	-11.7	-411.3	35.4
				CHANNELS 3  Xrotation Yrotation Zrotation
				JOINT left_toes
				{
					OFFSET	0	-60	-88.6
					CHANNELS 3  Xrotation Yrotation Zrotation
					JOINT left_foot_ee
					{
						OFFSET	-22.5	-16.5	-42.2
						CHANNELS 3  Xrotation Yrotation Zrotation
						End Site
						{
							OFFSET	1	0	0
						}
					}
				}
			}
		}
	}
	JOINT right_hip
	{
		OFFSET	82.8	-127.5	0.300001
		CHANNELS 3  Xrotation Yrotation Zrotation
		JOINT right_knee
		{
			OFFSET	28.2	-396.7	2.2
			CHANNELS 3  Xrotation Yrotation Zrotation
			JOINT right_ankle
			{
				OFFSET	11.7	-411.3	35.4
				CHANNELS 3  Xrotation Yrotation Zrotation
				JOINT right_toes
				{
					OFFSET	0	-60	-88.6
					CHANNELS 3  Xrotation Yrotation Zrotation
					JOINT right_foot_ee
					{
						OFFSET	22.5	-16.5	-42.2
						CHANNELS 3  Xrotation Yrotation Zrotation
						End Site
						{
							OFFSET	1	0	0
						}
					}
				}
			}
		}
	}
}
MOTION
Frames: 9
Frame Time: 0.02
1372.05 701.618 -1475.22 -16.6462489156 45.9976123927 15.17740311 3.14367 -0.78201 -2.90535 3.14816 -0.595634 -2.94917 3.1774 -0.129691 -3.00587 3.1653 -0.602576 -2.94776 -7.6269 1.46605 3.76804 -7.58702 0.0431902 4.0564 -0.0 0.0 -0.0 11.3871 -21.7113 22.4018 -12.944 -23.0958 53.9374 1.2479 -31.722 0.354568 35.4809 -0.135309 -4.45883 7.10548 -26.9902 35.982 -0.0 0.0 -0.0 8.1684 -1.51713 -15.89 -37.5652 3.14454 -59.8705 0.806153 21.7689 -0.155016 -63.4094 5.70955 -5.1946 2.78358 19.4601 -10.2427 0.0 0.0 0.0 1.33296 -22.6713 -0.728595 -28.7058 0.0914556 4.35849 18.7545 -14.1182 -2.76415 -9.22027 0.0 0.0 -0.0 0.0 -0.0 40.0253 -21.2861 -1.04512 -13.526 -0.31658 -2.0468 15.7592 -11.1776 2.19635 -40.1489 0.0 0.0 0.0 0.0 0.0 
1372.05 701.618 -1475.22 -16.6217611536 45.9183436103 15.1433369867 3.14367 -0.78201 -2.90535 3.14816 -0.595634 -2.94917 3.1774 -0.129691 -3.00587 3.1653 -0.602576 -2.94776 -7.6269 1.46605 3.76804 -7.58702 0.0431902 4.0564 -0.0 0.0 -0.0 11.3871 -21.7113 22.4018 -12.944 -23.0958 53.9374 1.2479 -31.722 0.354568 35.4809 -0.135309 -4.45883 7.10548 -26.9902 35.982 -0.0 0.0 -0.0 8.1684 -1.51713 -15.89 -37.5652 3.14454 -59.8705 0.806153 21.7689 -0.155016 -63.4094 5.70955 -5.1946 2.78358 19.4601 -10.2427 0.0 0.0 0.0 1.33296 -22.6713 -0.728595 -28.7058 0.0914556 4.35849 18.7545 -14.1182 -2.76415 -9.22027 0.0 0.0 -0.0 0.0 -0.0 40.0253 -21.2861 -1.04512 -13.526 -0.31658 -2.0468 15.7592 -11.1776 2.19635 -40.1489 0.0 0.0 0.0 0.0 0.0 
1372.05 701.618 -1475.22 -16.4552226256 45.3699777007 14.910422614 3.14367 -0.78201 -2.90535 3.14816 -0.595634 -2.94917 3.1774 -0.129691 -3.00587 3.1653 -0.602576 -2.94776 -7.6269 1.46605 3.76804 -7.58702 0.0431902 4.0564 -0.0 0.0 -0.0 11.3871 -21.7113 22.4018 -12.944 -23.0958 53.9374 1.2479 -31.722 0.354568 35.4809 -0.135309 -4.45883 7.10548 -26.9902 35.982 -0.0 0.0 -0.0 8.1684 -1.51713 -15.89 -37.5652 3.14454 -59.8705 0.806153 21.7689 -0.155016 -63.4094 5.70955 -5.1946 2.78358 19.4601 -10.2427 0.0 0.0 0.0 1.33296 -22.6713 -0.728595 -28.7058 0.0914556 4.35849 18.7545 -14.1182 -2.76415 -9.22027 0.0 0.0 -0.0 0.0 -0.0 40.0253 -21.2861 -1.04512 -13.526 -0.31658 -2.0468 15.7592 -11.1776 2.19635 -40.1489 0.0 0.0 0.0 0.0 0.0 
1372.05 701.618 -1475.22 -16.3120101575 44.8850351279 14.708340731 3.14367 -0.78201 -2.90535 3.14816 -0.595634 -2.94917 3.1774 -0.129691 -3.00587 3.1653 -0.602576 -2.94776 -7.6269 1.46605 3.76804 -7.58702 0.0431902 4.0564 -0.0 0.0 -0.0 11.3871 -21.7113 22.4018 -12.944 -23.0958 53.9374 1.2479 -31.722 0.354568 35.4809 -0.135309 -4.45883 7.10548 -26.9902 35.982 -0.0 0.0 -0.0 8.1684 -1.51713 -15.89 -37.5652 3.14454 -59.8705 0.806153 21.7689 -0.155016 -63.4094 5.70955 -5.1946 2.78358 19.4601 -10.2427 0.0 0.0 0.0 1.33296 -22.6713 -0.728595 -28.7058 0.0914556 4.35849 18.7545 -14.1182 -2.76415 -9.22027 0.0 0.0 -0.0 0.0 -0.0 40.0253 -21.2861 -1.04512 -13.526 -0.31658 -2.0468 15.7592 -11.1776 2.19635 -40.1489 0.0 0.0 0.0 0.0 0.0 
1348.44996134 711.293 -1518.40355896 -16.6929745965 48.1526695804 15.0532889911 3.09322 -0.733115 -2.64823 3.09694 -0.563178 -2.68948 3.12227 -0.13534 -2.74443 3.11221 -0.566916 -2.68869 -7.30296 -1.43832 5.62103 -7.20583 -6.71171 5.31687 -0.0 0.0 -0.0 12.0654 -19.9565 24.0872 -14.1487 -24.4334 56.1204 0.925149 -24.6212 0.201899 38.3721 -0.267309 -4.80409 3.69053 -15.9378 18.2079 -0.0 0.0 -0.0 8.3413 0.715103 -16.2876 -38.4642 3.29592 -62.111 0.818358 22.067 -0.159572 -61.9149 5.52182 -5.15679 3.47328 23.2305 -12.9442 0.0 0.0 0.0 6.68957 -19.2517 -1.95477 -40.7254 -0.513561 6.09952 -5.41769 -22.1975 0.933552 5.48846 -0.0 -0.0 -0.0 0.0 -0.0 38.4078 -21.2332 -0.976296 -17.6027 -0.316471 -2.67215 29.2199 -10.3469 3.81392 -40.1289 0.0 0.0 0.0 0.0 0.0 
1349.12675557 711.293 -1518.76660094 -16.4127598822 47.2955322939 14.6745877284 3.09322 -0.733115 -2.64823 3.09694 -0.563178 -2.68948 3.12227 -0.13534 -2.74443 3.11221 -0.566916 -2.68869 -7.30296 -1.43832 5.62103 -7.20583 -6.71171 5.31687 -0.0 0.0 -0.0 12.0654 -19.9565 24.0872 -14.1487 -24.4334 56.1204 0.925149 -24.6212 0.201899 38.3721 -0.267309 -4.80409 3.69053 -15.9378 18.2079 -0.0 0.0 -0.0 8.3413 0.715103 -16.2876 -38.4642 3.29592 -62.111 0.818358 22.067 -0.159572 -61.9149 5.52182 -5.15679 3.47328 23.2305 -12.9442 0.0 0.0 0.0 6.68957 -19.2517 -1.95477 -40.7254 -0.513561 6.09952 -5.41769 -22.1975 0.933552 5.48846 -0.0 -0.0 -0.0 0.0 -0.0 38.4078 -21.2332 -0.976296 -17.6027 -0.316471 -2.67215 29.2199 -10.3469 3.81392 -40.1289 0.0 0.0 0.0 0.0 0.0 
1304.06251804 710.749 -1567.82234728 -18.5323816452 51.8987583575 17.3514069869 3.72039 -0.673745 -2.49221 3.72369 -0.513846 -2.53 3.74476 -0.139557 -2.57785 3.7359 -0.544798 -2.52352 -8.7388 -5.2632 4.33187 -8.70487 -12.864 3.06506 -0.0 0.0 -0.0 10.838 -8.27882 21.6779 -12.8616 -28.6277 60.9587 0.572327 -15.8289 0.0795649 44.9568 -0.631874 -5.56292 -0.496569 9.60012 0.78996 -0.0 0.0 -0.0 8.45889 5.13703 -16.5663 -39.7305 -0.8285 -66.1683 1.03975 27.2506 -0.252035 -51.8564 4.29087 -4.77646 -1.29528 13.0016 14.3899 0.0 0.0 0.0 18.3606 -16.5046 -1.77263 -62.3643 -2.46063 8.78065 -2.84032 -2.84731 0.426666 12.907 -0.0 -0.0 -0.0 0.0 -0.0 31.8499 -20.3825 -2.49347 -11.6901 -0.302102 -1.76549 41.1022 -13.6989 5.01132 -38.5589 0.0 0.0 0.0 0.0 0.0 
1286.4880481 708.927 -1587.12881754 -18.560374294 53.1944337976 17.6457720326 3.77638 -0.637127 -2.43299 3.77955 -0.481067 -2.46858 3.79867 -0.118414 -2.5122 3.79023 -0.513562 -2.46202 -9.17427 -5.7449 3.1422 -9.17751 -12.9384 1.72633 -0.0 0.0 -0.0 9.46535 -5.09757 18.6854 -13.1114 -27.9862 63.6509 0.631904 -17.3816 0.0965922 45.2894 -0.652584 -5.6001 -0.0660307 7.52987 2.70597 -0.0 0.0 -0.0 8.60749 6.44289 -16.8726 -37.6007 -2.85073 -66.9649 0.971006 25.6875 -0.221392 -50.3693 4.11512 -4.70208 -2.48645 5.91297 19.6603 0.0 0.0 0.0 19.4648 -13.9027 -2.51453 -62.074 -2.42805 8.74989 3.99792 -2.68491 -0.589709 15.8341 -0.0 -0.0 -0.0 0.0 -0.0 31.2098 -20.1828 -2.45071 -12.4886 -0.309506 -1.88779 40.7511 -8.74222 4.93335 -37.3841 0.0 0.0 0.0 0.0 0.0 
1276.54778956 714.478 -1603.07534819 -18.1776712721 54.3963926351 17.2994354994 3.62971 -0.552378 -2.34539 3.63268 -0.402059 -2.37576 3.64796 -0.0472723 -2.40906 3.64012 -0.427037 -2.3714 -10.7037 -6.44573 1.3329 -10.764 -13.0511 -0.395124 -0.0 0.0 -0.0 7.39858 -0.472791 14.3872 -14.8302 -27.5161 65.5639 0.743541 -20.2202 0.132582 45.2568 -0.650546 -5.59646 0.545275 4.53317 5.49349 -0.0 0.0 -0.0 8.73819 8.32934 -17.129 -33.1109 -5.16207 -67.8175 0.879221 23.5348 -0.18316 -48.7847 3.93005 -4.61784 -4.01666 -3.24379 26.1375 0.0 0.0 0.0 21.145 -13.5244 -2.89229 -61.1071 -2.32071 8.64627 12.3807 -2.55215 -1.77323 18.7783 -0.0 -0.0 -0.0 0.0 -0.0 30.3223 -19.907 -2.41499 -13.6669 -0.317319 -2.06841 40.1865 -1.698 4.88165 -35.7172 0.0 0.0 0.0 0.0 0.0 
